<?xml version="1.0" encoding="iso-8859-1"?>
<!-- Generator: Adobe Illustrator 19.0.0, SVG Export Plug-In . SVG Version: 6.00 Build 0)  -->
<svg version="1.1" id="Layer_1" xmlns="http://www.w3.org/2000/svg" xmlns:xlink="http://www.w3.org/1999/xlink" x="0px" y="0px"
	 viewBox="0 0 512 512" style="enable-background:new 0 0 512 512;" xml:space="preserve">
<g>
	<g>
		<path d="M437.019,74.982C388.667,26.628,324.381,0,256,0S123.333,26.628,74.982,74.982C26.628,123.333,0,187.619,0,256
			s26.628,132.667,74.982,181.019C123.333,485.372,187.619,512,256,512s132.667-26.628,181.019-74.981
			C485.372,388.667,512,324.381,512,256S485.372,123.333,437.019,74.982z M256,491.602c-129.911,0-235.602-105.69-235.602-235.602
			S126.089,20.398,256,20.398S491.602,126.089,491.602,256S385.911,491.602,256,491.602z"/>
	</g>
</g>
<g>
	<g>
		<path d="M450.364,178.795c-21.665-54.498-65.54-97.656-120.378-118.408c-5.268-1.996-11.156,0.662-13.149,5.929
			c-1.995,5.268,0.66,11.156,5.929,13.149c49.491,18.728,89.089,57.679,108.642,106.865c1.59,3.998,5.425,6.435,9.481,6.435
			c1.254,0,2.529-0.234,3.765-0.724C449.888,189.96,452.445,184.03,450.364,178.795z"/>
	</g>
</g>
<g>
	<g>
		<path d="M291.37,49.898c-11.605-1.979-23.505-2.981-35.37-2.981c-5.632,0-10.199,4.567-10.199,10.199S250.368,67.315,256,67.315
			c10.72,0,21.467,0.906,31.944,2.69c0.579,0.1,1.156,0.148,1.725,0.148c4.88,0,9.195-3.515,10.042-8.488
			C300.657,56.112,296.922,50.844,291.37,49.898z"/>
	</g>
</g>
<g>
	<g>
		<path d="M394.191,235.052l-98.558-98.559c-5.595-5.596-13.036-8.677-20.949-8.677c-7.913,0-15.353,3.082-20.948,8.679
			c-11.55,11.551-11.55,30.345,0,41.896l77.61,77.61l-77.61,77.611c-11.55,11.551-11.55,30.345,0.001,41.897
			c5.596,5.594,13.036,8.675,20.948,8.675c7.914,0,15.353-3.082,20.948-8.676l98.558-98.559
			C405.742,265.398,405.742,246.602,394.191,235.052z M379.766,262.524l-98.558,98.559c-1.742,1.743-4.058,2.702-6.523,2.702
			s-4.782-0.96-6.524-2.701c-3.597-3.598-3.597-9.453,0-13.05l84.822-84.822c3.983-3.984,3.983-10.442,0-14.425l-84.822-84.821
			c-3.597-3.598-3.597-9.453,0-13.05c1.798-1.799,4.161-2.699,6.524-2.699c2.363,0,4.725,0.9,6.523,2.699l98.558,98.559
			C383.364,253.074,383.364,258.927,379.766,262.524z"/>
	</g>
</g>
<g>
	<g>
		<path d="M285.802,235.052l-98.559-98.559c-5.595-5.596-13.036-8.677-20.948-8.677c-7.914,0-15.354,3.082-20.948,8.677
			c-11.551,11.551-11.551,30.347,0,41.897l77.61,77.61l-77.61,77.61c-11.551,11.551-11.551,30.347,0,41.897
			c5.595,5.595,13.035,8.676,20.948,8.676c7.914,0,15.353-3.082,20.948-8.676l98.559-98.56
			C297.351,265.398,297.351,246.602,285.802,235.052z M271.377,262.522l-98.559,98.559c-1.742,1.743-4.058,2.702-6.523,2.702
			c-2.465,0-4.781-0.959-6.523-2.702c-3.597-3.597-3.597-9.452,0-13.049l84.822-84.822c3.983-3.984,3.983-10.442,0-14.425
			l-84.822-84.822c-1.743-1.743-2.703-4.059-2.703-6.524c0-2.464,0.96-4.78,2.703-6.524c1.742-1.742,4.059-2.702,6.523-2.702
			c2.464,0,4.78,0.961,6.523,2.702l98.559,98.558C274.974,253.071,274.974,258.926,271.377,262.522z"/>
	</g>
</g>
<g>
</g>
<g>
</g>
<g>
</g>
<g>
</g>
<g>
</g>
<g>
</g>
<g>
</g>
<g>
</g>
<g>
</g>
<g>
</g>
<g>
</g>
<g>
</g>
<g>
</g>
<g>
</g>
<g>
</g>
</svg>
