<svg id="_x31_" enable-background="new 0 0 24 24" viewBox="0 0 24 24"
  xmlns="http://www.w3.org/2000/svg">
  <g>
    <g>
      <path
        d="m12 24c-6.617 0-12-5.383-12-12s5.383-12 12-12 12 5.383 12 12-5.383 12-12 12zm0-23c-6.065 0-11 4.935-11 11s4.935 11 11 11 11-4.935 11-11-4.935-11-11-11z" />
    </g>
  </g>
  <g>
    <g>
      <g>
        <path
          d="m17.5 15.043h-1c-.827 0-1.5-.673-1.5-1.5v-7.043c0-.827.673-1.5 1.5-1.5h1c.827 0 1.5.673 1.5 1.5v7.043c0 .828-.673 1.5-1.5 1.5zm-1-9.043c-.275 0-.5.224-.5.5v7.043c0 .276.225.5.5.5h1c.275 0 .5-.224.5-.5v-7.043c0-.276-.225-.5-.5-.5z" />
      </g>
    </g>
    <g>
      <g>
        <path
          d="m12 19c-.662 0-1.913-.577-1.913-2.761 0-.731.14-1.33.289-1.761h-2.614c-.813 0-1.581-.356-2.106-.976-.526-.621-.751-1.437-.617-2.238l.659-3.957c.222-1.337 1.367-2.307 2.723-2.307h1.035c4.361 0 6.273 1.458 6.353 1.52.217.17.255.484.085.702-.172.217-.485.255-.702.085-.015-.012-1.757-1.307-5.736-1.307h-1.035c-.864 0-1.596.619-1.737 1.471l-.659 3.957c-.085.512.059 1.032.394 1.428s.825.623 1.344.623h3.391c.185 0 .354.102.44.264.088.163.078.36-.024.513-.003.005-.481.757-.481 1.984-.002 1.291.544 1.76.911 1.76.163 0 .348 0 .348-1.196 0-2.252 2.798-3.769 2.917-3.833.246-.128.546-.037.676.206s.038.546-.205.676c-.023.013-2.388 1.299-2.388 2.95 0 .769 0 2.197-1.348 2.197z" />
      </g>
    </g>
  </g>
</svg>