<?xml version="1.0" encoding="iso-8859-1"?>
<!-- Generator: Adobe Illustrator 19.0.0, SVG Export Plug-In . SVG Version: 6.00 Build 0)  -->
<svg version="1.1" id="Capa_1" xmlns="http://www.w3.org/2000/svg" xmlns:xlink="http://www.w3.org/1999/xlink" x="0px" y="0px"
	 viewBox="0 0 432 432" style="enable-background:new 0 0 432 432;" xml:space="preserve">
<g>
	<g>
		<g>
			<path d="M320.002,0h-80c-1.817-0.001-3.581,0.617-5,1.752L117.194,96H40.002c-4.418,0-8,3.582-8,8v224c0,4.418,3.582,8,8,8
				h77.192l117.808,94.248c1.419,1.135,3.183,1.753,5,1.752h80c4.418,0,8-3.582,8-8V8C328.002,3.582,324.42,0,320.002,0z
				 M312.002,416H242.81l-117.808-94.248c-1.419-1.135-3.183-1.753-5-1.752h-72V112h72c1.817,0.001,3.581-0.617,5-1.752L242.81,16
				h69.192V416z"/>
			<path d="M362.514,125.488c-0.064-0.067-0.13-0.132-0.196-0.196c-3.178-3.07-8.242-2.982-11.312,0.196
				c-3.069,3.178-2.982,8.242,0.196,11.312c0.003,0.003,0.005,0.005,0.008,0.008c43.737,43.741,43.733,114.655-0.008,158.392
				c-1.491,1.495-2.33,3.519-2.334,5.63c-0.01,4.418,3.564,8.008,7.982,8.018c2.127,0.006,4.167-0.841,5.664-2.352
				C412.493,256.51,412.493,175.474,362.514,125.488z"/>
		</g>
	</g>
</g>
<g>
</g>
<g>
</g>
<g>
</g>
<g>
</g>
<g>
</g>
<g>
</g>
<g>
</g>
<g>
</g>
<g>
</g>
<g>
</g>
<g>
</g>
<g>
</g>
<g>
</g>
<g>
</g>
<g>
</g>
</svg>
